<svg width="149" height="46" viewBox="0 0 149 46" fill="none" xmlns="http://www.w3.org/2000/svg">
<path d="M50.1127 10.3536V28H45.8142V10.3536H50.1127ZM57.5263 15.9592C57.9285 15.3057 58.5066 14.7778 59.2607 14.3756C60.0149 13.9734 60.8779 13.7723 61.8499 13.7723C63.0062 13.7723 64.0536 14.0656 64.992 14.6521C65.9305 15.2386 66.6679 16.0765 67.2041 17.1658C67.7571 18.2551 68.0336 19.5204 68.0336 20.9616C68.0336 22.4028 67.7571 23.6764 67.2041 24.7824C66.6679 25.8717 65.9305 26.718 64.992 27.3213C64.0536 27.9078 63.0062 28.2011 61.8499 28.2011C60.8611 28.2011 59.9981 28.0084 59.2607 27.6229C58.5234 27.2207 57.9452 26.6929 57.5263 26.0393V28H53.2278V9.39841H57.5263V15.9592ZM63.6598 20.9616C63.6598 19.889 63.3581 19.0511 62.7548 18.4478C62.1683 17.8278 61.4393 17.5178 60.5679 17.5178C59.7132 17.5178 58.9842 17.8278 58.3809 18.4478C57.7944 19.0679 57.5011 19.9142 57.5011 20.9867C57.5011 22.0592 57.7944 22.9055 58.3809 23.5256C58.9842 24.1456 59.7132 24.4556 60.5679 24.4556C61.4225 24.4556 62.1515 24.1456 62.7548 23.5256C63.3581 22.8888 63.6598 22.0341 63.6598 20.9616ZM74.5872 16.3112C75.09 15.5403 75.7184 14.937 76.4725 14.5013C77.2266 14.0488 78.0645 13.8226 78.9862 13.8226V18.3724H77.8048C76.7323 18.3724 75.9279 18.607 75.3916 19.0763C74.8553 19.5287 74.5872 20.3331 74.5872 21.4894V28H70.2887V13.9734H74.5872V16.3112ZM80.1861 20.9616C80.1861 19.5204 80.4543 18.2551 80.9905 17.1658C81.5436 16.0765 82.2893 15.2386 83.2278 14.6521C84.1662 14.0656 85.2136 13.7723 86.3699 13.7723C87.3586 13.7723 88.2217 13.9734 88.9591 14.3756C89.7132 14.7778 90.2913 15.3057 90.6935 15.9592V13.9734H94.992V28H90.6935V26.0142C90.2746 26.6677 89.688 27.1956 88.9339 27.5978C88.1966 28 87.3335 28.2011 86.3448 28.2011C85.2052 28.2011 84.1662 27.9078 83.2278 27.3213C82.2893 26.718 81.5436 25.8717 80.9905 24.7824C80.4543 23.6764 80.1861 22.4028 80.1861 20.9616ZM90.6935 20.9867C90.6935 19.9142 90.3919 19.0679 89.7886 18.4478C89.2021 17.8278 88.4814 17.5178 87.6268 17.5178C86.7721 17.5178 86.0431 17.8278 85.4398 18.4478C84.8533 19.0511 84.56 19.889 84.56 20.9616C84.56 22.0341 84.8533 22.8888 85.4398 23.5256C86.0431 24.1456 86.7721 24.4556 87.6268 24.4556C88.4814 24.4556 89.2021 24.1456 89.7886 23.5256C90.3919 22.9055 90.6935 22.0592 90.6935 20.9867ZM106.724 13.8226C108.333 13.8226 109.623 14.3588 110.595 15.4314C111.567 16.4871 112.053 17.9451 112.053 19.8052V28H107.78V20.3834C107.78 19.4449 107.537 18.716 107.051 18.1965C106.565 17.677 105.911 17.4172 105.09 17.4172C104.269 17.4172 103.615 17.677 103.129 18.1965C102.643 18.716 102.4 19.4449 102.4 20.3834V28H98.1018V9.39841H102.4V15.8587C102.836 15.2386 103.431 14.7443 104.185 14.3756C104.939 14.0069 105.785 13.8226 106.724 13.8226ZM117.202 12.5154C116.448 12.5154 115.828 12.2976 115.342 11.8619C114.872 11.4094 114.638 10.8564 114.638 10.2028C114.638 9.53248 114.872 8.97945 115.342 8.54374C115.828 8.09127 116.448 7.86503 117.202 7.86503C117.939 7.86503 118.542 8.09127 119.012 8.54374C119.498 8.97945 119.741 9.53248 119.741 10.2028C119.741 10.8564 119.498 11.4094 119.012 11.8619C118.542 12.2976 117.939 12.5154 117.202 12.5154ZM119.338 13.9734V28H115.04V13.9734H119.338ZM140.351 13.8226C142.094 13.8226 143.477 14.3505 144.499 15.4062C145.538 16.462 146.057 17.9283 146.057 19.8052V28H141.784V20.3834C141.784 19.4785 141.541 18.783 141.055 18.297C140.586 17.7943 139.932 17.5429 139.094 17.5429C138.256 17.5429 137.595 17.7943 137.109 18.297C136.639 18.783 136.405 19.4785 136.405 20.3834V28H132.131V20.3834C132.131 19.4785 131.888 18.783 131.402 18.297C130.933 17.7943 130.28 17.5429 129.442 17.5429C128.604 17.5429 127.942 17.7943 127.456 18.297C126.987 18.783 126.752 19.4785 126.752 20.3834V28H122.454V13.9734H126.752V15.733C127.188 15.1465 127.757 14.6856 128.461 14.3505C129.165 13.9985 129.961 13.8226 130.849 13.8226C131.905 13.8226 132.844 14.0488 133.665 14.5013C134.503 14.9537 135.156 15.5989 135.625 16.4368C136.111 15.666 136.773 15.0375 137.611 14.5516C138.449 14.0656 139.363 13.8226 140.351 13.8226Z" fill="white"/>
<path d="M90.7529 34.3172V41.5038H89.8078V36.145L87.4192 41.5038H86.7545L84.3555 36.1346V41.5038H83.4105V34.3172H84.4282L87.0869 40.2576L89.7455 34.3172H90.7529ZM99.5319 35.0338V37.4536H102.17V38.2325H99.5319V40.7249H102.481V41.5038H98.5869V34.2549H102.481V35.0338H99.5319ZM117.485 34.3172V41.5038H116.54V36.145L114.151 41.5038H113.487L111.088 36.1346V41.5038H110.143V34.3172H111.16L113.819 40.2576L116.478 34.3172H117.485ZM128.601 41.5765C127.929 41.5765 127.316 41.4208 126.763 41.1092C126.209 40.7907 125.769 40.3511 125.444 39.7903C125.125 39.2225 124.966 38.5856 124.966 37.8794C124.966 37.1732 125.125 36.5396 125.444 35.9788C125.769 35.4111 126.209 34.9715 126.763 34.6599C127.316 34.3414 127.929 34.1822 128.601 34.1822C129.279 34.1822 129.895 34.3414 130.449 34.6599C131.003 34.9715 131.439 35.4076 131.758 35.9685C132.076 36.5293 132.236 37.1662 132.236 37.8794C132.236 38.5925 132.076 39.2295 131.758 39.7903C131.439 40.3511 131.003 40.7907 130.449 41.1092C129.895 41.4208 129.279 41.5765 128.601 41.5765ZM128.601 40.7561C129.106 40.7561 129.56 40.6384 129.961 40.403C130.37 40.1676 130.688 39.8318 130.917 39.3956C131.152 38.9594 131.27 38.454 131.27 37.8794C131.27 37.2978 131.152 36.7924 130.917 36.3631C130.688 35.9269 130.373 35.5911 129.972 35.3557C129.57 35.1203 129.113 35.0026 128.601 35.0026C128.088 35.0026 127.631 35.1203 127.23 35.3557C126.828 35.5911 126.51 35.9269 126.274 36.3631C126.046 36.7924 125.932 37.2978 125.932 37.8794C125.932 38.454 126.046 38.9594 126.274 39.3956C126.51 39.8318 126.828 40.1676 127.23 40.403C127.638 40.6384 128.095 40.7561 128.601 40.7561ZM145.406 41.5038H144.461L140.66 35.74V41.5038H139.714V34.2549H140.66L144.461 40.0084V34.2549H145.406V41.5038Z" fill="white"/>
<path d="M0 7.37598H26.8561" stroke="white" stroke-width="3.06926"/>
<path d="M0 36.9573H26.8561" stroke="white" stroke-width="3.06926"/>
<path d="M16.4495 7.37598L5.37134 21.8227L16.4495 37.3013" stroke="white" stroke-width="3.06926"/>
</svg>
